# xmcd
#
# Track frame offsets:
#	150
#	17160
#	43842
#	74212
#	106310
#	127179
#	145207
#
# Disc length: 2206 seconds
#
# Revision: 0
# Processed by: cddbd v1.5.1PL2 Copyright (c) Steve Scherf et al.
# Submitted via: dBpowerAMP V4.0
#
DISCID=6e089c07
DTITLE=Bomfunk Mc's - Rocking just to make ya move
DYEAR=1999
DGENRE=Dance
TTITLE0=Rocking just to make ya move (radio edit)
TTITLE1=Rocking just to make ya move (JS16 Powerplay)
TTITLE2=Rocking just to make ya move (Dj Orkidea's 160719942330 Remix)
TTITLE3=Rocking just to make ya move (Extended mix)
TTITLE4=Rocking just to make ya move (Dj Gismo's hot stuff)
TTITLE5=Rocking just to make ya move (Missing link 2step mix)
TTITLE6=Rocking just to make ya move (Quincy freak mix)
EXTD=
EXTT0=
EXTT1=
EXTT2=
EXTT3=
EXTT4=
EXTT5=
EXTT6=
PLAYORDER=
